<?xml version="1.0" encoding="UTF-8"?>
<svg xmlns="http://www.w3.org/2000/svg" xmlns:xlink="http://www.w3.org/1999/xlink" viewBox="0 0 37 37" width="37px" height="37px">
<g id="surface14245637">
<path style=" stroke:none;fill-rule:nonzero;fill:rgb(100%,100%,100%);fill-opacity:1;" d="M 18.5 33.671875 C 10.121094 33.671875 3.328125 26.878906 3.328125 18.5 C 3.328125 10.121094 10.121094 3.328125 18.5 3.328125 C 26.878906 3.328125 33.671875 10.121094 33.671875 18.5 C 33.671875 26.878906 26.878906 33.671875 18.5 33.671875 Z M 18.5 33.671875 "/>
<path style=" stroke:none;fill-rule:nonzero;fill:rgb(50.196081%,42.745098%,90.588236%);fill-opacity:1;" d="M 15.007812 10.117188 C 12.308594 10.117188 10.117188 12.3125 10.117188 15.007812 L 10.117188 21.992188 C 10.117188 24.6875 12.3125 26.882812 15.007812 26.882812 L 21.992188 26.882812 C 24.6875 26.882812 26.882812 24.6875 26.882812 21.992188 L 26.882812 15.007812 C 26.882812 12.308594 24.6875 10.117188 21.992188 10.117188 Z M 23.53125 12.800781 C 23.898438 12.800781 24.199219 13.101562 24.199219 13.46875 C 24.199219 13.839844 23.898438 14.140625 23.53125 14.140625 C 23.160156 14.140625 22.859375 13.839844 22.859375 13.46875 C 22.859375 13.101562 23.160156 12.800781 23.53125 12.800781 Z M 18.5 14.140625 C 20.902344 14.140625 22.859375 16.097656 22.859375 18.5 C 22.859375 20.902344 20.902344 22.859375 18.5 22.859375 C 16.097656 22.859375 14.140625 20.902344 14.140625 18.5 C 14.140625 16.097656 16.097656 14.140625 18.5 14.140625 Z M 18.5 15.480469 C 16.832031 15.480469 15.480469 16.832031 15.480469 18.5 C 15.480469 20.167969 16.832031 21.519531 18.5 21.519531 C 20.167969 21.519531 21.519531 20.167969 21.519531 18.5 C 21.519531 16.832031 20.167969 15.480469 18.5 15.480469 Z M 18.5 15.480469 "/>
</g>
</svg>
