<?xml version="1.0" encoding="UTF-8"?>
<svg xmlns="http://www.w3.org/2000/svg" xmlns:xlink="http://www.w3.org/1999/xlink" viewBox="0 0 37 37" width="37px" height="37px">
<g id="surface14533637">
<path style=" stroke:none;fill-rule:nonzero;fill:rgb(100%,100%,100%);fill-opacity:1;" d="M 18.5 33.671875 C 10.121094 33.671875 3.328125 26.878906 3.328125 18.5 C 3.328125 10.121094 10.121094 3.328125 18.5 3.328125 C 26.878906 3.328125 33.671875 10.121094 33.671875 18.5 C 33.671875 26.878906 26.878906 33.671875 18.5 33.671875 Z M 18.5 33.671875 "/>
<path style=" stroke:none;fill-rule:nonzero;fill:rgb(50.196081%,42.745098%,90.588236%);fill-opacity:1;" d="M 25.140625 14.03125 C 24.652344 14.246094 24.125 14.390625 23.574219 14.460938 C 24.136719 14.125 24.570312 13.59375 24.773438 12.960938 C 24.246094 13.269531 23.660156 13.496094 23.039062 13.617188 C 22.546875 13.089844 21.839844 12.765625 21.054688 12.765625 C 19.550781 12.765625 18.328125 13.976562 18.328125 15.464844 C 18.328125 15.675781 18.355469 15.882812 18.402344 16.082031 C 16.136719 15.96875 14.128906 14.890625 12.785156 13.257812 C 12.546875 13.65625 12.414062 14.125 12.414062 14.617188 C 12.414062 15.554688 12.894531 16.378906 13.628906 16.867188 C 13.179688 16.851562 12.761719 16.730469 12.390625 16.53125 C 12.390625 16.539062 12.390625 16.550781 12.390625 16.5625 C 12.390625 17.871094 13.332031 18.960938 14.578125 19.210938 C 14.347656 19.273438 14.109375 19.308594 13.859375 19.308594 C 13.683594 19.308594 13.511719 19.289062 13.347656 19.257812 C 13.695312 20.328125 14.699219 21.109375 15.890625 21.132812 C 14.960938 21.855469 13.785156 22.289062 12.507812 22.289062 C 12.285156 22.289062 12.070312 22.277344 11.859375 22.25 C 13.066406 23.015625 14.496094 23.464844 16.035156 23.464844 C 21.046875 23.464844 23.789062 19.347656 23.789062 15.777344 C 23.789062 15.660156 23.785156 15.542969 23.78125 15.429688 C 24.3125 15.050781 24.777344 14.574219 25.140625 14.03125 "/>
</g>
</svg>
