<?xml version="1.0" encoding="UTF-8"?>
<svg xmlns="http://www.w3.org/2000/svg" xmlns:xlink="http://www.w3.org/1999/xlink" viewBox="0 0 37 37" width="37px" height="37px">
<g id="surface14515701">
<rect x="0" y="0" width="37" height="37" style="fill:rgb(50.196081%,42.745098%,90.588236%);fill-opacity:1;stroke:none;"/>
<path style=" stroke:none;fill-rule:nonzero;fill:rgb(100%,100%,100%);fill-opacity:1;" d="M 18.5 3.082031 C 9.984375 3.082031 3.082031 9.984375 3.082031 18.5 C 3.082031 26.816406 9.675781 33.578125 17.914062 33.886719 L 17.914062 23.183594 L 14.304688 23.183594 L 14.304688 18.984375 L 17.914062 18.984375 L 17.914062 15.894531 C 17.914062 12.308594 20.105469 10.355469 23.304688 10.355469 C 24.382812 10.355469 25.457031 10.410156 26.527344 10.519531 L 26.527344 14.265625 L 24.328125 14.265625 C 22.585938 14.265625 22.246094 15.089844 22.246094 16.304688 L 22.246094 18.976562 L 26.410156 18.976562 L 25.867188 23.179688 L 22.222656 23.179688 L 22.222656 33.445312 C 28.933594 31.777344 33.917969 25.730469 33.917969 18.5 C 33.917969 9.984375 27.015625 3.082031 18.5 3.082031 Z M 18.5 3.082031 "/>
</g>
</svg>
